<?xml version="1.0" encoding="UTF-8"?>
<svg width="1200" height="630" viewBox="0 0 1200 630" xmlns="http://www.w3.org/2000/svg">
  <defs>
    <linearGradient id="bgGradient" x1="0%" y1="0%" x2="100%" y2="100%">
      <stop offset="0%" style="stop-color:#667eea;stop-opacity:1" />
      <stop offset="50%" style="stop-color:#764ba2;stop-opacity:1" />
      <stop offset="100%" style="stop-color:#667eea;stop-opacity:1" />
    </linearGradient>
    <linearGradient id="logoGradient" x1="0%" y1="0%" x2="100%" y2="100%">
      <stop offset="0%" style="stop-color:#3b82f6;stop-opacity:1" />
      <stop offset="50%" style="stop-color:#8b5cf6;stop-opacity:1" />
      <stop offset="100%" style="stop-color:#06b6d4;stop-opacity:1" />
    </linearGradient>
    <filter id="glow">
      <feGaussianBlur stdDeviation="4" result="coloredBlur"/>
      <feMerge> 
        <feMergeNode in="coloredBlur"/>
        <feMergeNode in="SourceGraphic"/>
      </feMerge>
    </filter>
  </defs>
  
  <!-- Background -->
  <rect width="1200" height="630" fill="url(#bgGradient)"/>
  
  <!-- Decorative elements -->
  <circle cx="100" cy="100" r="50" fill="white" opacity="0.1"/>
  <circle cx="1100" cy="530" r="80" fill="white" opacity="0.1"/>
  <circle cx="50" cy="500" r="30" fill="white" opacity="0.08"/>
  <circle cx="1150" cy="80" r="40" fill="white" opacity="0.08"/>
  
  <!-- Main logo circle -->
  <circle cx="350" cy="315" r="120" fill="url(#logoGradient)" filter="url(#glow)"/>
  
  <!-- Logo content (scaled up) -->
  <!-- Letter "T" -->
  <rect x="290" y="260" width="50" height="12" fill="white" rx="6"/>
  <rect x="310" y="260" width="12" height="75" fill="white" rx="6"/>
  
  <!-- Letter "M" with map-like connection lines -->
  <rect x="360" y="260" width="12" height="75" fill="white" rx="6"/>
  <rect x="408" y="260" width="12" height="75" fill="white" rx="6"/>
  <path d="M372 260 L390 290 L408 260" stroke="white" stroke-width="12" fill="none" stroke-linecap="round" stroke-linejoin="round"/>
  
  <!-- Map connection nodes -->
  <circle cx="315" cy="350" r="8" fill="#fbbf24"/>
  <circle cx="365" cy="350" r="8" fill="#fbbf24"/>
  <circle cx="415" cy="350" r="8" fill="#fbbf24"/>
  
  <!-- Connection lines -->
  <path d="M315 350 L365 350 L415 350" stroke="#fbbf24" stroke-width="4" opacity="0.8"/>
  <path d="M315 350 L390 320 L415 350" stroke="#fbbf24" stroke-width="3" opacity="0.6"/>
  
  <!-- Title -->
  <text x="600" y="280" fill="white" font-family="Arial, sans-serif" font-size="72" font-weight="bold">TurboMap</text>
  
  <!-- Subtitle -->
  <text x="600" y="330" fill="white" font-family="Arial, sans-serif" font-size="32" opacity="0.9">High-Performance Mapping Tool</text>
  
  <!-- Description -->
  <text x="600" y="380" fill="white" font-family="Arial, sans-serif" font-size="24" opacity="0.8">Type-safe Map implementation supporting</text>
  <text x="600" y="410" fill="white" font-family="Arial, sans-serif" font-size="24" opacity="0.8">complex nested objects as keys</text>
  
  <!-- Features badges -->
  <rect x="600" y="450" width="140" height="35" rx="17" fill="white" opacity="0.2"/>
  <text x="670" y="472" fill="white" font-family="Arial, sans-serif" font-size="16" text-anchor="middle" font-weight="bold">TypeScript</text>
  
  <rect x="750" y="450" width="120" height="35" rx="17" fill="white" opacity="0.2"/>
  <text x="810" y="472" fill="white" font-family="Arial, sans-serif" font-size="16" text-anchor="middle" font-weight="bold">Node.js 18+</text>
  
  <rect x="880" y="450" width="100" height="35" rx="17" fill="white" opacity="0.2"/>
  <text x="930" y="472" fill="white" font-family="Arial, sans-serif" font-size="16" text-anchor="middle" font-weight="bold">MIT License</text>
  
  <!-- GitHub info -->
  <text x="600" y="520" fill="white" font-family="Arial, sans-serif" font-size="18" opacity="0.7">github.com/chenfangyin/turbo-map</text>
  <text x="600" y="550" fill="white" font-family="Arial, sans-serif" font-size="18" opacity="0.7">npm install turbo-map</text>
</svg>